<svg version="1.2" xmlns="http://www.w3.org/2000/svg" viewBox="0 0 280 261" width="280" height="266">
	<title>EquiWeb_Logo_Transparent</title>
	<style>
		.s0 { fill: #010101 } 
	</style>
	<path id="Path 0" fill-rule="evenodd" class="s0" d="m157.5 41.4c6.9 0.2 14.6 1.1 18 2 3.3 0.9 10.1 3.6 15 6 4.9 2.5 11.9 6.9 15.5 9.8 3.6 3 9.2 9 12.5 13.3 3.4 4.4 7.4 10.7 8.9 14 1.6 3.3 3.8 9.2 4.8 13 1 3.8 2.1 12 2.5 18 0.3 6 0.3 12.7-0.7 18.5h-62.3c-34.3 0-62.7 0.3-63 0.8-0.3 0.4 0.7 3.3 2.3 6.5 1.7 3.1 5.6 8.5 8.9 11.9 4.2 4.5 7.8 7.2 12.7 9.5 3.8 1.8 10.3 4 14.4 4.9 6.9 1.4 8.2 1.4 16 0 6.1-1.2 10.9-2.9 25.5-10.7l17.2 0.1c10.5 0 17.5 0.4 17.8 1 0.3 0.6-0.7 2.9-2.2 5.2-1.4 2.4-4.3 6.3-6.3 8.8-2 2.5-6.8 6.8-10.6 9.7-3.8 2.8-10.7 7-15.4 9.2-4.7 2.2-11.8 4.7-15.8 5.6-4.3 0.9-12.4 1.5-20 1.5-11.7 0-13.4-0.3-22.2-3.3-5.2-1.8-12.7-5.1-16.5-7.4-3.8-2.4-9.4-6.4-12.4-9-3-2.7-7.3-7.3-9.7-10.3-2.3-3-5.9-8.9-8.1-13-2.1-4.1-4.8-10.5-7.8-21h-9c-5 0-9.5-0.4-10.1-0.8-0.8-0.5 0.3-5.2 8.1-29.2l10.6-0.5 3-9c1.7-5 3.8-10.3 4.6-12 0.9-1.7 3.4-5.7 5.7-9 2.2-3.3 7-8.8 10.6-12.3 3.6-3.5 9-7.8 12-9.7 3-1.8 9.4-4.9 14.2-6.9 4.9-2 11.2-4 14-4.5 2.9-0.6 10.7-0.8 17.3-0.7zm-24.5 34.8c-4.3 2.2-8.8 5.6-13.3 10.3-3.8 3.8-8.1 9.4-9.5 12.3-1.5 2.9-2.3 5.6-1.9 6 0.5 0.4 21.5 0.7 46.7 0.7 25.2 0 46.2-0.4 46.7-0.8 0.4-0.5-0.6-3.4-2.2-6.5-1.7-3.1-5.5-8.4-8.6-11.7-3.8-4-8.1-7.2-13-9.8-4.1-2.1-10.1-4.2-13.4-4.7-3.3-0.6-8.3-0.9-11-0.9-2.8 0.1-7 0.5-9.5 1-2.5 0.5-7.4 2.3-11 4.1zm-80.9 29.8h3.4c1.9 0 3.7 0.5 4 1 0.3 0.5-1.5 7.3-8.5 29h-3.5c-1.9 0-3.7-0.4-4-1-0.3-0.6 1.5-7.3 4-15zm146.3 40l16.1 0.2c15.4 0.3 16 0.4 15.7 2.3-0.2 1.1-0.8 3-1.3 4.3-0.8 2.2-1.1 2.2-36.8 2.2z"/>
</svg>